<svg width="450" height="450" viewBox="0 0 450 450" fill="none" xmlns="http://www.w3.org/2000/svg">
    <rect width="450" height="450" fill="white"/>
    <rect x="76.5" y="76.5" width="297" height="297" rx="28.5" stroke="black" stroke-width="3"/>
    <line x1="75" y1="173.5" x2="375" y2="173.5" stroke="black" stroke-width="3"/>
    <line x1="75" y1="273.5" x2="375" y2="273.5" stroke="black" stroke-width="3"/>
    <line x1="176.5" y1="75" x2="176.5" y2="375" stroke="black" stroke-width="3"/>
    <line x1="276.5" y1="75" x2="276.5" y2="375" stroke="black" stroke-width="3"/>
    <path d="M322.445 123.414H325.352C326.961 123.414 328.367 123.133 329.57 122.57C330.773 121.992 331.688 121.211 332.312 120.227C332.953 119.227 333.273 118.078 333.273 116.781C333.273 114.594 332.656 112.883 331.422 111.648C330.188 110.414 328.414 109.797 326.102 109.797C323.914 109.797 322.117 110.445 320.711 111.742C319.32 113.023 318.625 114.719 318.625 116.828H315.812C315.812 115.062 316.258 113.453 317.148 112C318.039 110.531 319.273 109.398 320.852 108.602C322.43 107.805 324.18 107.406 326.102 107.406C329.195 107.406 331.633 108.25 333.414 109.938C335.195 111.625 336.086 113.938 336.086 116.875C336.086 118.516 335.562 120.031 334.516 121.422C333.484 122.797 332.062 123.828 330.25 124.516C332.375 125.109 333.984 126.133 335.078 127.586C336.172 129.023 336.719 130.742 336.719 132.742C336.719 135.664 335.766 138.016 333.859 139.797C331.953 141.578 329.406 142.469 326.219 142.469C324.188 142.469 322.32 142.062 320.617 141.25C318.93 140.438 317.617 139.305 316.68 137.852C315.758 136.383 315.297 134.68 315.297 132.742H318.109C318.109 134.914 318.867 136.688 320.383 138.062C321.898 139.422 323.844 140.102 326.219 140.102C328.641 140.102 330.523 139.484 331.867 138.25C333.227 137 333.906 135.195 333.906 132.836C333.906 130.555 333.172 128.812 331.703 127.609C330.25 126.406 328.102 125.805 325.258 125.805H322.445V123.414Z" fill="black"/>
    <path d="M131.438 330.008H136.758V332.375H131.438V341H128.625V332.375H112.57V330.781L128.367 306.875H131.438V330.008ZM116.016 330.008H128.625V310.508L127.383 312.664L116.016 330.008Z" fill="#30C1FF"/>
    <path d="M318.109 223.516L319.773 206.875H336.836V209.477H322.188L320.992 221.008C322.82 219.758 324.961 219.133 327.414 219.133C330.492 219.133 332.945 220.133 334.773 222.133C336.602 224.133 337.516 226.797 337.516 230.125C337.516 233.719 336.625 236.508 334.844 238.492C333.062 240.477 330.555 241.469 327.32 241.469C324.352 241.469 321.945 240.641 320.102 238.984C318.258 237.328 317.203 235.008 316.938 232.023H319.633C319.898 234.352 320.688 236.117 322 237.32C323.312 238.508 325.086 239.102 327.32 239.102C329.758 239.102 331.594 238.328 332.828 236.781C334.078 235.234 334.703 233.031 334.703 230.172C334.703 227.672 334.008 225.633 332.617 224.055C331.227 222.477 329.328 221.688 326.922 221.688C325.594 221.688 324.438 221.859 323.453 222.203C322.469 222.531 321.43 223.18 320.336 224.148L318.109 223.516Z" fill="#30C1FF"/>
    <path d="M235.32 116.664C235.32 118.43 234.805 120.016 233.773 121.422C232.742 122.812 231.383 123.836 229.695 124.492C231.664 125.164 233.242 126.25 234.43 127.75C235.617 129.25 236.211 130.984 236.211 132.953C236.211 135.875 235.219 138.195 233.234 139.914C231.25 141.617 228.625 142.469 225.359 142.469C222.062 142.469 219.422 141.617 217.438 139.914C215.469 138.211 214.484 135.891 214.484 132.953C214.484 131.016 215.055 129.289 216.195 127.773C217.336 126.258 218.898 125.164 220.883 124.492C219.195 123.836 217.852 122.812 216.852 121.422C215.852 120.016 215.352 118.43 215.352 116.664C215.352 113.836 216.258 111.586 218.07 109.914C219.898 108.242 222.312 107.406 225.312 107.406C228.312 107.406 230.727 108.25 232.555 109.938C234.398 111.625 235.32 113.867 235.32 116.664ZM233.398 132.977C233.398 130.852 232.641 129.109 231.125 127.75C229.609 126.375 227.672 125.688 225.312 125.688C222.953 125.688 221.023 126.359 219.523 127.703C218.023 129.047 217.273 130.805 217.273 132.977C217.273 135.148 218 136.883 219.453 138.18C220.906 139.461 222.875 140.102 225.359 140.102C227.781 140.102 229.727 139.461 231.195 138.18C232.664 136.898 233.398 135.164 233.398 132.977ZM232.508 116.641C232.508 114.688 231.828 113.062 230.469 111.766C229.125 110.453 227.406 109.797 225.312 109.797C223.188 109.797 221.461 110.43 220.133 111.695C218.82 112.945 218.164 114.594 218.164 116.641C218.164 118.641 218.82 120.25 220.133 121.469C221.461 122.688 223.195 123.297 225.336 123.297C227.445 123.297 229.164 122.688 230.492 121.469C231.836 120.234 232.508 118.625 232.508 116.641Z" fill="#30C1FF"/>
    <path d="M232.719 325.203C231.719 326.672 230.477 327.812 228.992 328.625C227.508 329.422 225.898 329.82 224.164 329.82C222.227 329.82 220.516 329.32 219.031 328.32C217.547 327.32 216.398 325.938 215.586 324.172C214.773 322.406 214.367 320.477 214.367 318.383C214.367 316.133 214.797 314.086 215.656 312.242C216.531 310.398 217.742 308.969 219.289 307.953C220.852 306.922 222.648 306.406 224.68 306.406C228.102 306.406 230.766 307.609 232.672 310.016C234.578 312.406 235.531 315.805 235.531 320.211V322.742C235.531 328.898 234.219 333.523 231.594 336.617C228.969 339.711 224.961 341.258 219.57 341.258H219.055L219.078 338.82H220.062C224.141 338.758 227.242 337.602 229.367 335.352C231.492 333.102 232.609 329.719 232.719 325.203ZM224.516 327.406C226.391 327.406 228.07 326.852 229.555 325.742C231.055 324.617 232.117 323.164 232.742 321.383V319.766C232.742 316.297 232.016 313.609 230.562 311.703C229.125 309.781 227.18 308.82 224.727 308.82C222.508 308.82 220.688 309.719 219.266 311.516C217.844 313.297 217.133 315.547 217.133 318.266C217.133 320.875 217.812 323.055 219.172 324.805C220.547 326.539 222.328 327.406 224.516 327.406Z" fill="black"/>
    <path d="M127.266 142H124.453V111.25L115.172 114.695V112.07L126.797 107.758H127.266V142Z" fill="black"/>
    <path d="M111.672 46.6582C111.672 45.0039 111.091 43.6982 109.929 42.7412C108.767 41.7705 106.641 40.8545 103.551 39.9932C100.461 39.1182 98.2051 38.168 96.7832 37.1426C94.7598 35.6934 93.748 33.793 93.748 31.4414C93.748 29.1582 94.6846 27.3057 96.5576 25.8838C98.4443 24.4482 100.851 23.7305 103.776 23.7305C105.759 23.7305 107.529 24.1133 109.088 24.8789C110.66 25.6445 111.877 26.7109 112.738 28.0781C113.6 29.4453 114.03 30.9697 114.03 32.6514H111.487C111.487 30.6143 110.79 28.9805 109.396 27.75C108.001 26.5059 106.128 25.8838 103.776 25.8838C101.493 25.8838 99.6748 26.3965 98.3213 27.4219C96.9678 28.4336 96.291 29.7598 96.291 31.4004C96.291 32.918 96.8994 34.1553 98.1162 35.1123C99.333 36.0693 101.281 36.917 103.961 37.6553C106.641 38.3799 108.671 39.1387 110.052 39.9316C111.433 40.7109 112.472 41.6475 113.169 42.7412C113.866 43.835 114.215 45.127 114.215 46.6172C114.215 48.9688 113.271 50.8555 111.385 52.2773C109.512 53.6992 107.037 54.4102 103.961 54.4102C101.855 54.4102 99.9209 54.0342 98.1572 53.2822C96.4072 52.5303 95.0742 51.4775 94.1582 50.124C93.2559 48.7705 92.8047 47.2188 92.8047 45.4688H95.3271C95.3271 47.5742 96.1133 49.2354 97.6855 50.4521C99.2578 51.6689 101.35 52.2773 103.961 52.2773C106.285 52.2773 108.151 51.7646 109.56 50.7393C110.968 49.7139 111.672 48.3535 111.672 46.6582ZM161.239 24.1406V44.5254C161.226 46.5352 160.781 48.2852 159.906 49.7754C159.031 51.2656 157.794 52.4141 156.194 53.2207C154.608 54.0137 152.783 54.4102 150.719 54.4102C147.574 54.4102 145.052 53.5557 143.151 51.8467C141.265 50.124 140.287 47.7451 140.219 44.71V24.1406H142.721V44.3408C142.721 46.8564 143.438 48.8115 144.874 50.2061C146.31 51.5869 148.258 52.2773 150.719 52.2773C153.18 52.2773 155.121 51.5801 156.543 50.1855C157.979 48.791 158.696 46.8496 158.696 44.3613V24.1406H161.239ZM189.273 54V24.1406H197.62C200.067 24.1406 202.262 24.7012 204.203 25.8223C206.145 26.9297 207.655 28.5225 208.735 30.6006C209.829 32.6787 210.376 35.0439 210.376 37.6963V40.4443C210.376 43.1104 209.836 45.4756 208.756 47.54C207.676 49.6045 206.151 51.1973 204.183 52.3184C202.228 53.4395 199.979 54 197.436 54H189.273ZM191.796 26.2939V51.8672H197.456C200.601 51.8672 203.123 50.8281 205.023 48.75C206.924 46.6582 207.874 43.835 207.874 40.2803V37.6553C207.874 34.2236 206.938 31.4756 205.064 29.4111C203.191 27.3467 200.724 26.3076 197.661 26.2939H191.796ZM259.861 40.6904C259.861 43.4385 259.383 45.8516 258.426 47.9297C257.482 50.0078 256.129 51.6074 254.365 52.7285C252.602 53.8496 250.564 54.4102 248.254 54.4102C244.768 54.4102 241.951 53.166 239.805 50.6777C237.658 48.1758 236.585 44.8057 236.585 40.5674V37.4912C236.585 34.7705 237.063 32.3643 238.021 30.2725C238.991 28.167 240.358 26.5537 242.122 25.4326C243.886 24.2979 245.916 23.7305 248.213 23.7305C250.51 23.7305 252.533 24.2842 254.283 25.3916C256.047 26.499 257.407 28.0645 258.364 30.0879C259.321 32.1113 259.82 34.4561 259.861 37.1221V40.6904ZM257.339 37.4502C257.339 33.8545 256.525 31.0381 254.898 29.001C253.271 26.9639 251.043 25.9453 248.213 25.9453C245.438 25.9453 243.223 26.9707 241.568 29.0215C239.928 31.0586 239.107 33.9092 239.107 37.5732V40.6904C239.107 44.2314 239.928 47.041 241.568 49.1191C243.209 51.1836 245.438 52.2158 248.254 52.2158C251.111 52.2158 253.34 51.1973 254.939 49.1602C256.539 47.1094 257.339 44.2588 257.339 40.6084V37.4502ZM293.945 39.1729L289.741 43.3154V54H287.219V24.1406H289.741V40.2393L305.04 24.1406H308.219L295.709 37.4297L309.183 54H306.106L293.945 39.1729ZM355.284 24.1406V44.5254C355.271 46.5352 354.826 48.2852 353.951 49.7754C353.076 51.2656 351.839 52.4141 350.239 53.2207C348.653 54.0137 346.828 54.4102 344.764 54.4102C341.619 54.4102 339.097 53.5557 337.196 51.8467C335.31 50.124 334.332 47.7451 334.264 44.71V24.1406H336.766V44.3408C336.766 46.8564 337.483 48.8115 338.919 50.2061C340.354 51.5869 342.303 52.2773 344.764 52.2773C347.225 52.2773 349.166 51.5801 350.588 50.1855C352.023 48.791 352.741 46.8496 352.741 44.3613V24.1406H355.284Z" fill="black"/>
    <path d="M195.024 390.784C194.256 392.656 192.624 395.44 191.472 397.12L193.872 398.272C195.12 396.688 196.752 394.288 198.144 392.08L195.024 390.784ZM183.936 397.12C183.456 395.44 182.16 392.896 180.816 390.976L178.128 392.08C179.424 394.048 180.672 396.688 181.104 398.368L183.936 397.12ZM204.96 401.968H213.312C212.448 407.92 211.152 413.008 209.088 417.28C207.168 412.816 205.824 407.632 204.912 402.112L204.96 401.968ZM191.856 418.24C191.232 420.832 190.272 422.944 188.832 424.672C186.96 423.76 185.04 422.896 183.12 422.128C183.744 420.88 184.464 419.584 185.136 418.24H191.856ZM219.888 401.968V398.608H205.968C206.64 395.968 207.264 393.184 207.744 390.352L204.096 389.824C202.8 398.272 200.304 406.288 196.272 411.328C197.088 411.904 198.624 413.104 199.152 413.776C200.448 412.048 201.648 410.032 202.656 407.776C203.76 412.672 205.152 417.136 206.976 421.024C204.624 424.624 201.456 427.504 197.376 429.76C195.888 428.656 193.968 427.408 191.856 426.256C193.488 424.096 194.592 421.456 195.264 418.24H199.44V415.264H186.624C187.2 414.112 187.728 412.96 188.256 411.904L187.44 411.712H189.504V404.56C191.808 406.288 194.832 408.592 196.08 409.744L198.048 407.2C196.752 406.24 191.568 402.976 189.504 401.776V401.536H199.248V398.608H189.504V389.824H186.192V398.608H176.352V401.536H185.232C182.88 404.656 179.232 407.632 175.824 409.168C176.496 409.792 177.36 411.04 177.792 411.856C180.72 410.272 183.792 407.632 186.192 404.8V411.424L184.944 411.136C184.368 412.432 183.696 413.824 182.976 415.264H176.064V418.24H181.488C180.192 420.736 178.896 423.184 177.84 425.008L180.912 426.112L181.68 424.768C183.264 425.44 184.848 426.208 186.384 426.976C183.936 428.752 180.576 429.952 176.16 430.72C176.832 431.392 177.552 432.688 177.792 433.648C182.928 432.544 186.72 430.96 189.504 428.656C191.712 429.952 193.632 431.248 195.12 432.448L196.224 431.296C196.848 432.112 197.472 433.168 197.76 433.792C202.464 431.392 206.064 428.32 208.896 424.576C211.248 428.416 214.176 431.488 217.872 433.648C218.352 432.688 219.504 431.296 220.32 430.624C216.48 428.608 213.456 425.344 211.056 421.216C213.984 416.08 215.808 409.744 217.008 401.968H219.888ZM240.912 390.64C239.952 392.512 238.608 394.432 237.072 396.352C235.728 394.384 234 392.464 231.84 390.592L229.344 392.512C231.744 394.576 233.52 396.736 234.864 398.992C232.848 401.056 230.736 403.072 228.576 404.608C229.344 405.184 230.448 406.144 231.024 406.864C232.848 405.472 234.672 403.84 236.352 402.16C237.216 404.272 237.744 406.48 238.032 408.784C235.776 412.96 231.888 417.424 228.336 419.728C229.2 420.352 230.16 421.552 230.784 422.416C233.328 420.352 236.16 417.28 238.416 414.064V415.648C238.416 421.936 237.936 427.696 236.784 429.28C236.352 429.808 235.92 430.048 235.2 430.144C234.096 430.24 232.272 430.288 230.016 430.096C230.592 431.104 230.976 432.4 231.024 433.552C232.992 433.648 234.912 433.648 236.592 433.312C237.744 433.12 238.704 432.544 239.328 431.776C241.296 429.088 241.824 422.656 241.824 415.696C241.824 410.08 241.392 404.608 238.848 399.424C240.816 397.168 242.64 394.72 244.032 392.272L240.912 390.64ZM248.736 413.776V402.4H255.744V413.776H248.736ZM266.256 402.4V413.776H259.296V402.4H266.256ZM272.64 432.208C271.536 428.8 268.944 423.04 266.784 418.768L263.472 419.728C264.432 421.696 265.44 423.952 266.4 426.112L259.296 426.832V416.896H269.856V399.232H259.296V389.968H255.744V399.232H245.28V416.896H255.744V427.216C250.752 427.744 246.24 428.224 242.784 428.512L243.456 432.208C249.888 431.536 258.96 430.528 267.744 429.424C268.32 430.96 268.8 432.304 269.088 433.456L272.64 432.208Z" fill="black"/>
</svg>
